<svg width="36" height="36" viewBox="0 0 36 36" fill="none" xmlns="http://www.w3.org/2000/svg">
<path d="M4.24236 21.3452L9.24302 9H9.89786L15.1763 22.31C15.3748 22.8482 15.8047 23.1173 16.4662 23.1173H16.9226V23.8655H11.0687V23.1173H11.5449C12.5768 23.1173 13.0927 22.9138 13.0927 22.5069C13.0927 22.3888 13.0663 22.2706 13.0134 22.1525L11.8029 19.0416H5.98862L5.31393 20.8333C5.19486 21.1483 5.12872 21.3452 5.11549 21.424C5.06257 21.6209 5.03611 21.8178 5.03611 22.0147C5.03611 22.3034 5.19486 22.5594 5.51237 22.7825C5.8431 23.0057 6.27966 23.1173 6.82206 23.1173H7.31816V23.8655H2V23.1173H2.15875C3.07157 23.1173 3.76611 22.5266 4.24236 21.3452ZM11.5052 18.2934L8.94536 11.8156L6.32597 18.2934H11.5052Z" fill="black"/>
<path d="M17.4338 17.0293V16.478H21.085V17.0293C20.6934 17.0293 20.4077 17.0608 20.2278 17.1238C20.0479 17.1763 19.9579 17.3023 19.9579 17.5019C19.9579 17.5859 19.9844 17.6961 20.0373 17.8326L22.0058 22.1643L23.7997 17.9587L23.8632 17.7381C23.8632 17.5281 23.7626 17.3706 23.5615 17.2656C23.371 17.1501 23.0853 17.0713 22.7043 17.0293V16.478H25.7841V17.0293C25.4877 17.0608 25.2443 17.1396 25.0538 17.2656C24.8739 17.3811 24.7257 17.5701 24.6093 17.8326L21.8788 24.086H21.4502L18.5291 17.6594C18.4127 17.3968 18.2751 17.2288 18.1164 17.1553C17.9576 17.0713 17.7301 17.0293 17.4338 17.0293Z" fill="black"/>
<path d="M26.4911 18.7777C26.4911 18.0637 26.7768 17.4704 27.3483 16.9978C27.9198 16.5148 28.6501 16.2732 29.5391 16.2732C29.9518 16.2732 30.317 16.3257 30.6345 16.4308C30.952 16.5253 31.2801 16.6828 31.6187 16.9033C31.8622 16.6513 32.1056 16.457 32.349 16.3205C32.603 16.1735 32.8517 16.1 33.0951 16.1C33.3385 16.1 33.5502 16.184 33.7301 16.352C33.91 16.52 34 16.73 34 16.9821C34 17.1816 33.9365 17.3443 33.8095 17.4704C33.6931 17.5964 33.5555 17.6594 33.3967 17.6594C33.1322 17.6594 32.9311 17.4809 32.7935 17.1238C32.73 16.9558 32.6559 16.8718 32.5712 16.8718C32.4866 16.8718 32.3913 16.9033 32.2855 16.9663C32.1797 17.0293 32.0791 17.1133 31.9839 17.2183C32.1744 17.4809 32.3172 17.7224 32.4125 17.9429C32.5183 18.1634 32.5712 18.4364 32.5712 18.762C32.5712 19.4445 32.2908 20.0378 31.7299 20.5419C31.1689 21.0459 30.481 21.298 29.6661 21.298H28.793C28.2638 21.298 27.8775 21.3505 27.6341 21.4555C27.3907 21.55 27.269 21.7495 27.269 22.054C27.269 22.3061 27.3642 22.4741 27.5547 22.5581C27.7452 22.6421 28.0574 22.6841 28.4913 22.6841L30.4598 22.6526C32.2908 22.6526 33.2062 23.2721 33.2062 24.5113C33.2062 25.2463 32.8623 25.8449 32.1744 26.3069C31.497 26.769 30.5551 27 29.3486 27C28.3326 27 27.5494 26.8372 26.9991 26.5117C26.4487 26.1967 26.1736 25.7871 26.1736 25.2831C26.1736 24.5585 26.7768 24.086 27.9833 23.8655C26.9356 23.6239 26.4117 23.1356 26.4117 22.4006C26.4117 22.0435 26.5281 21.7443 26.7609 21.5027C27.0044 21.2507 27.3642 21.0459 27.8405 20.8884C27.396 20.6364 27.0573 20.3424 26.8244 20.0063C26.6022 19.6598 26.4911 19.2503 26.4911 18.7777ZM29.5391 16.7615C29.0523 16.7615 28.6554 16.9401 28.3485 17.2971C28.0521 17.6541 27.904 18.1424 27.904 18.762C27.904 19.4025 28.0521 19.9013 28.3485 20.2584C28.6448 20.6154 29.0417 20.7939 29.5391 20.7939C30.0259 20.7939 30.4175 20.6154 30.7139 20.2584C31.0102 19.9013 31.1584 19.3973 31.1584 18.7462C31.1584 18.1477 31.0049 17.6699 30.698 17.3128C30.4016 16.9453 30.0153 16.7615 29.5391 16.7615ZM29.9836 23.8812C29.0946 23.8812 28.4225 23.9967 27.9675 24.2277C27.5124 24.4588 27.2848 24.7948 27.2848 25.2358C27.2848 25.6244 27.4753 25.9289 27.8563 26.1494C28.2479 26.3804 28.7983 26.4959 29.5073 26.4959C30.354 26.4959 31.0261 26.3594 31.5235 26.0864C32.0209 25.8134 32.2696 25.4721 32.2696 25.0626C32.2696 24.275 31.5076 23.8812 29.9836 23.8812Z" fill="black"/>
</svg>
