<svg width="48" height="48" viewBox="0 0 48 48" fill="none" xmlns="http://www.w3.org/2000/svg">
<path d="M24.3262 17.0005C23.8502 17.0005 23.4641 16.6214 23.4641 16.1541C23.4641 15.6867 23.8502 15.3077 24.3262 15.3077C25.623 15.3077 26.6762 14.2736 26.6762 13.0002C26.6762 11.7269 25.623 10.6928 24.3262 10.6928C23.0293 10.6928 21.9761 11.7269 21.9761 13.0002C21.9761 13.4676 21.59 13.8467 21.114 13.8467C20.638 13.8467 20.252 13.4676 20.252 13.0002C20.252 10.7959 22.081 9 24.3262 9C26.5713 9 28.4004 10.7959 28.4004 13.0002C28.4004 15.2046 26.5713 17.0005 24.3262 17.0005Z" fill="#76CED6"/>
<path d="M23.9998 20.1982C23.5238 20.1982 23.1377 19.8191 23.1377 19.3517V16.2605C23.1377 15.7931 23.5238 15.4141 23.9998 15.4141C24.4758 15.4141 24.8618 15.7931 24.8618 16.2605V19.3517C24.8618 19.8191 24.4758 20.1982 23.9998 20.1982Z" fill="#76CED6"/>
<path d="M30.945 38.6548H17.0582C16.6459 38.6548 16.3086 38.3235 16.3086 37.9187V25.7966C16.3086 25.3918 16.6459 25.0605 17.0582 25.0605H30.945C31.3573 25.0605 31.6946 25.3918 31.6946 25.7966V37.9187C31.6946 38.3235 31.3573 38.6548 30.945 38.6548Z" fill="#5A54F9"/>
<path d="M30.9458 38.9999H17.059C16.1707 38.9999 15.4473 38.2897 15.4473 37.4175V25.2953C15.4473 24.4231 16.1707 23.7129 17.059 23.7129H30.9458C31.8341 23.7129 32.5575 24.4231 32.5575 25.2953V37.4175C32.5575 38.2897 31.8341 38.9999 30.9458 38.9999ZM17.1714 37.3071H30.8333V25.4057H17.1714V37.3071Z" fill="#76CED6"/>
<path d="M38.1379 30.3117C37.6619 30.3117 37.2759 29.9326 37.2759 29.4653C37.2759 24.534 33.1904 20.519 28.1642 20.519H19.8358C14.8133 20.519 10.7241 24.5303 10.7241 29.4653C10.7241 29.9326 10.3381 30.3117 9.86207 30.3117C9.38606 30.3117 9 29.9326 9 29.4653C9 28.0337 9.28861 26.6463 9.85457 25.3326C10.4018 24.0666 11.1852 22.9295 12.1822 21.9506C13.1792 20.9717 14.3373 20.2025 15.6267 19.6652C16.961 19.1095 18.3778 18.8262 19.8358 18.8262H28.1642C29.6222 18.8262 31.0352 19.1095 32.3733 19.6652C33.6627 20.2025 34.8208 20.9717 35.8178 21.9506C36.8148 22.9295 37.5982 24.0666 38.1454 25.3326C38.7114 26.6427 39 28.0337 39 29.4653C39 29.9326 38.6139 30.3117 38.1379 30.3117Z" fill="#76CED6"/>
<path d="M16.2935 30.31H9.87672C9.40071 30.31 9.01465 29.931 9.01465 29.4636C9.01465 28.9962 9.40071 28.6172 9.87672 28.6172H16.2973C16.7733 28.6172 17.1593 28.9962 17.1593 29.4636C17.1593 29.931 16.7695 30.31 16.2935 30.31ZM38.1113 30.3836H31.6908C31.2148 30.3836 30.8287 30.0046 30.8287 29.5372C30.8287 29.0698 31.2148 28.6908 31.6908 28.6908H38.1113C38.5874 28.6908 38.9734 29.0698 38.9734 29.5372C38.9734 30.0046 38.5874 30.3836 38.1113 30.3836Z" fill="#76CED6"/>
</svg>
