<svg width="36" height="36" viewBox="0 0 36 36" fill="none" xmlns="http://www.w3.org/2000/svg">
<path d="M0 10.8105V10H4.94284L9.34538 22.434L13.4277 10H18.4706V10.8105H16.9498C16.4028 10.8105 16.1293 11.109 16.1293 11.7062V24.1829C16.1293 24.6947 16.4695 24.9507 17.1499 24.9507H18.4706V25.7611H11.7067V24.9507H13.1476C13.401 24.9507 13.6078 24.8867 13.7679 24.7587C13.9414 24.6165 14.0281 24.4246 14.0281 24.1829V10.7891L9.12525 25.7611H8.44486L3.18183 10.8531V22.3061C3.18183 23.3013 3.3686 23.9909 3.74215 24.3748C4.1157 24.7587 4.73606 24.9507 5.60322 24.9507V25.7611H0V24.9507C0.853825 24.9507 1.46084 24.7658 1.82105 24.3962C2.18126 24.0265 2.36136 23.3724 2.36136 22.434V11.5569C2.36136 11.0593 2.06786 10.8105 1.48085 10.8105H0Z" fill="black"/>
<path d="M21.087 18.9192C21.087 18.9647 21.1777 19.1524 21.3591 19.4823C21.4552 19.6529 21.5032 19.8065 21.5032 19.9429C21.5032 20.5117 21.2257 20.7961 20.6707 20.7961C20.3933 20.7961 20.1638 20.7107 19.9823 20.5401C19.8116 20.3581 19.7262 20.1022 19.7262 19.7723C19.7262 19.1808 20.0357 18.6633 20.6547 18.2197C21.2738 17.7647 22.0475 17.5372 22.9761 17.5372C23.8192 17.5372 24.4809 17.7362 24.9612 18.1344C25.4522 18.5211 25.6976 19.0273 25.6976 19.6529V24.0379C25.6976 24.7772 25.9111 25.1469 26.338 25.1469C26.4554 25.1469 26.5621 25.1298 26.6582 25.0957C26.7649 25.0502 26.877 24.982 26.9944 24.891L27.2986 25.3516C26.9143 25.7839 26.4874 26 26.0178 26C25.2814 26 24.7531 25.5223 24.4329 24.5668C23.9633 25.09 23.5577 25.4483 23.2162 25.6417C22.8 25.8806 22.293 26 21.6953 26C20.9589 26 20.3826 25.8294 19.9663 25.4881C19.5608 25.1469 19.358 24.6919 19.358 24.1232C19.358 23.3156 19.7956 22.6331 20.6707 22.0757C21.5566 21.507 22.7893 21.1259 24.3689 20.9326V19.7382C24.3689 19.2718 24.2034 18.8908 23.8726 18.595C23.5524 18.2993 23.1468 18.1514 22.6559 18.1514C22.2396 18.1514 21.8714 18.2424 21.5512 18.4244C21.2417 18.595 21.087 18.76 21.087 18.9192ZM24.3689 22.6558V21.5127C23.1308 21.6947 22.229 21.9733 21.6633 22.3487C21.1083 22.7127 20.8308 23.2473 20.8308 23.9525C20.8308 24.3848 20.9376 24.726 21.151 24.9763C21.3751 25.2151 21.674 25.3346 22.0475 25.3346C22.6666 25.3346 23.2055 25.0843 23.6645 24.5838C24.1341 24.072 24.3689 23.4293 24.3689 22.6558Z" fill="black"/>
<path d="M27.8353 18.3562V17.759H31.4694V18.3562C31.1812 18.3562 30.9571 18.3846 30.797 18.4415C30.6476 18.487 30.5729 18.5723 30.5729 18.6974C30.5729 18.8112 30.6262 18.9249 30.733 19.0387L32.0137 20.8643L33.2784 19.1752C33.3105 19.141 33.3425 19.0842 33.3745 19.0045C33.4172 18.9135 33.4385 18.8453 33.4385 18.7998C33.4385 18.6747 33.3531 18.578 33.1824 18.5097C33.0223 18.4415 32.7768 18.3903 32.446 18.3562V17.759H35.6158V18.3562C35.2316 18.413 34.8954 18.5211 34.6072 18.6804C34.319 18.8396 34.0682 19.0671 33.8548 19.3628L32.3979 21.325L34.7033 24.5327C34.8847 24.7715 35.0661 24.9308 35.2476 25.0104C35.4397 25.0786 35.6905 25.1128 36 25.1128V25.7611H32.1738V25.1128H32.446C32.9476 25.1128 33.1984 25.0275 33.1984 24.8568C33.1984 24.8113 33.1824 24.7545 33.1504 24.6862C33.1183 24.618 33.0863 24.5668 33.0543 24.5327L31.5494 22.417L30.3327 24.072C30.2474 24.1857 30.1833 24.2881 30.1406 24.3791C30.1086 24.4587 30.0926 24.544 30.0926 24.635C30.0926 24.9535 30.4288 25.1128 31.1012 25.1128V25.7611H27.8353V25.1128C28.1982 25.1128 28.529 25.0161 28.8279 24.8227C29.1267 24.618 29.4202 24.3279 29.7084 23.9525L31.1972 21.9392L28.988 18.9022C28.8599 18.7202 28.6998 18.5837 28.5077 18.4927C28.3156 18.4017 28.0915 18.3562 27.8353 18.3562Z" fill="black"/>
</svg>
