<svg width="36" height="36" viewBox="0 0 36 36" fill="none" xmlns="http://www.w3.org/2000/svg">
<path d="M1 10.8227V10H6.05301L10.5537 22.6225L14.727 10H19.8823V10.8227H18.3275C17.7684 10.8227 17.4888 11.1258 17.4888 11.7321V24.3978C17.4888 24.9175 17.8365 25.1773 18.5321 25.1773H19.8823V26H12.9677V25.1773H14.4406C14.6997 25.1773 14.9111 25.1123 15.0748 24.9824C15.2521 24.8381 15.3407 24.6432 15.3407 24.3978V10.8011L10.3286 26H9.63308L4.25275 10.866V22.4926C4.25275 23.5029 4.44368 24.203 4.82556 24.5927C5.20743 24.9824 5.84161 25.1773 6.72811 25.1773V26H1V25.1773C1.87285 25.1773 2.4934 24.9896 2.86164 24.6143C3.22987 24.2391 3.41399 23.5751 3.41399 22.6225V11.5805C3.41399 11.0753 3.11394 10.8227 2.51386 10.8227H1Z" fill="black"/>
<path d="M22.6879 13.0268C22.9388 13.0268 23.1571 13.1249 23.3425 13.3212C23.528 13.5175 23.6208 13.7543 23.6208 14.0314C23.6208 14.297 23.5335 14.5221 23.3589 14.7069C23.1843 14.8917 22.9661 14.984 22.7043 14.984C22.4424 14.984 22.2242 14.8917 22.0496 14.7069C21.875 14.5221 21.7878 14.297 21.7878 14.0314C21.7878 13.7658 21.875 13.5349 22.0496 13.3386C22.2351 13.1307 22.4479 13.0268 22.6879 13.0268ZM20.5767 18.5348V17.8766L23.6208 17.738V24.7529C23.6208 25.1455 23.8226 25.3418 24.2263 25.3418H25.0937V26H20.7403V25.3418H21.5423C22.0223 25.3418 22.2624 25.0993 22.2624 24.6143V19.5047C22.2624 18.8581 21.9132 18.5348 21.215 18.5348H20.5767Z" fill="black"/>
<path d="M25.6386 18.4482V17.8766L28.1917 17.738C28.2681 18.1075 28.3227 18.4366 28.3554 18.7253C28.399 19.0024 28.4209 19.2622 28.4209 19.5047C29.0973 18.3269 30.0302 17.738 31.2194 17.738C31.9832 17.738 32.5778 17.9921 33.0033 18.5001C33.4289 19.0082 33.6416 19.7068 33.6416 20.5959V24.5451C33.6416 24.8337 33.6962 25.0416 33.8053 25.1686C33.9253 25.2841 34.1381 25.3418 34.4436 25.3418H35V26H30.9412V25.3418H31.3176C31.9614 25.3418 32.2832 25.0993 32.2832 24.6143V21.1502C32.2832 19.5105 31.7104 18.6907 30.5648 18.6907C29.9647 18.6907 29.4574 18.9505 29.0428 19.4701C28.6282 19.9897 28.4209 20.6768 28.4209 21.5313V24.5451C28.4209 24.8453 28.4809 25.0531 28.6009 25.1686C28.7209 25.2841 28.9391 25.3418 29.2555 25.3418H29.7792V26H25.7205V25.3418H26.2442C26.7897 25.3418 27.0625 25.1397 27.0625 24.7356V19.5047C27.0625 18.8004 26.7242 18.4482 26.0478 18.4482H25.6386Z" fill="black"/>
</svg>
