<svg width="48" height="48" viewBox="0 0 48 48" fill="none" xmlns="http://www.w3.org/2000/svg">
<path d="M38.6204 19.5917L25.8909 9.6729C24.8034 8.77476 23.0971 8.77664 22.0115 9.6729L9.37954 19.5936C9.17081 19.77 9.03745 20.0196 9.00677 20.2911C8.97609 20.5627 9.05043 20.8357 9.21454 21.0542C9.55579 21.5042 10.1839 21.5811 10.6152 21.2249L11.0239 20.8874V35.8819C11.0239 37.6669 12.7977 39 14.384 39H34.3172C35.8847 39 36.9385 37.7475 36.9385 35.8837V20.8574L37.3885 21.2267C37.4901 21.3114 37.608 21.3743 37.7349 21.4115C37.8618 21.4486 37.995 21.4593 38.1262 21.4427C38.2574 21.4262 38.3838 21.3829 38.4975 21.3154C38.6113 21.2479 38.7099 21.1577 38.7873 21.0505C38.9506 20.8319 39.0243 20.5591 38.9933 20.288C38.9623 20.0169 38.8289 19.7678 38.6204 19.5917Z" fill="#00B42A"/>
<path d="M20 26C20 23.7909 21.7909 22 24 22V22C26.2091 22 28 23.7909 28 26V37H20V26Z" fill="white"/>
<path d="M22 27C22 25.8954 22.8954 25 24 25V25C25.1046 25 26 25.8954 26 27V35H22V27Z" fill="#5A54F9"/>
</svg>
