<svg width="48" height="48" viewBox="0 0 48 48" fill="none" xmlns="http://www.w3.org/2000/svg">
<path d="M28.7894 19.284C29.4816 17.919 29.8414 16.4094 29.8394 14.8785V12.0988H31.3782C31.9357 12.0988 32.3882 11.6283 32.3882 11.0488C32.3882 10.4693 31.9357 10 31.3782 10H10.0238C9.46627 10 9.01375 10.4693 9.01375 11.0488C9.01375 11.6283 9.46627 12.0988 10.0238 12.0988H11.6563V14.8798C11.6563 18.2902 13.4101 21.3503 16.134 23.0111C13.4101 24.6719 11.6563 27.7306 11.6563 31.1423V33.3576H10.01C9.45126 33.3576 9 33.8269 9 34.4064C9 34.9858 9.45251 35.4552 10.01 35.4552H22.2192C20.8961 33.6943 20.1822 31.5498 20.1853 29.3464C20.1861 26.9174 21.0536 24.5687 22.6315 22.7237C24.2093 20.8786 26.3936 19.6587 28.7906 19.284H28.7894Z" fill="#FCB323"/>
<path d="M30.355 20.6914C32.6477 20.6914 34.8465 21.6033 36.4676 23.2264C38.0888 24.8496 38.9996 27.051 38.9996 29.3465C38.9996 31.6419 38.0888 33.8434 36.4676 35.4665C34.8465 37.0897 32.6477 38.0015 30.355 38.0015C28.0624 38.0015 25.8638 37.0897 24.2427 35.4667C22.6216 33.8437 21.7109 31.6424 21.7109 29.3471C21.7109 27.0518 22.6216 24.8505 24.2427 23.2275C25.8638 21.6045 28.0624 20.6927 30.355 20.6927V20.6914ZM30.1274 23.9404C29.4451 23.9387 28.7692 24.0724 28.1388 24.3339C27.5085 24.5953 26.9361 24.9793 26.4548 25.4635C25.9723 25.9462 25.5896 26.5194 25.3287 27.1504C25.0679 27.7814 24.934 28.4577 24.9348 29.1406C24.9328 29.8239 25.0661 30.5007 25.327 31.1321C25.5879 31.7635 25.9712 32.3368 26.4548 32.8189C26.5773 32.9403 26.7048 33.0567 26.8373 33.1656L25.7048 34.2982C25.6301 34.38 25.5898 34.4875 25.5923 34.5983C25.5948 34.7091 25.6399 34.8147 25.7181 34.8931C25.7964 34.9715 25.9019 35.0166 26.0126 35.0191C26.1232 35.0216 26.2306 34.9812 26.3123 34.9065L27.5561 33.6599C28.3397 34.1075 29.2265 34.3422 30.1287 34.3408C31.0363 34.3429 31.9283 34.1055 32.715 33.6524L33.9676 34.9052C34.0481 34.9859 34.1574 35.0312 34.2713 35.0312C34.3853 35.0312 34.4945 34.9859 34.5751 34.9052C34.6556 34.8245 34.7009 34.7151 34.7009 34.6011C34.7009 34.487 34.6556 34.3776 34.5751 34.297L33.4313 33.1543C34.0773 32.6192 34.5857 31.9368 34.9138 31.1643C35.1839 30.524 35.3225 29.8357 35.3214 29.1406C35.3232 28.4575 35.1898 27.7809 34.9289 27.1497C34.668 26.5186 34.2848 25.9455 33.8013 25.4635C33.3192 24.98 32.7465 24.5966 32.1161 24.3352C31.4856 24.0738 30.8098 23.9396 30.1274 23.9404ZM30.1274 24.8015C31.2766 24.8028 32.3783 25.2603 33.1909 26.0738C34.0036 26.8872 34.4609 27.9901 34.4626 29.1406C34.4613 30.2913 34.0041 31.3945 33.1914 32.2082C32.3787 33.0219 31.2768 33.4796 30.1274 33.4809C28.9783 33.4793 27.8768 33.0214 27.0643 32.2078C26.2519 31.3941 25.7949 30.2911 25.7936 29.1406C25.7952 27.9903 26.2524 26.8876 27.0648 26.0742C27.8772 25.2608 28.9785 24.8031 30.1274 24.8015ZM30.1274 25.436C30.071 25.436 30.0152 25.4472 29.9631 25.4688C29.911 25.4905 29.8637 25.5222 29.8238 25.5622C29.784 25.6022 29.7524 25.6497 29.731 25.7019C29.7095 25.7541 29.6985 25.8101 29.6987 25.8665V29.1406C29.6987 29.2557 29.7437 29.3659 29.8262 29.446L31.7762 31.3859C31.8161 31.4255 31.8634 31.4569 31.9154 31.4782C31.9674 31.4996 32.0231 31.5104 32.0793 31.5102C32.1355 31.51 32.1911 31.4986 32.2429 31.4769C32.2947 31.4551 32.3417 31.4233 32.3813 31.3834C32.4213 31.3435 32.453 31.2961 32.4746 31.2439C32.4963 31.1917 32.5074 31.1357 32.5074 31.0792C32.5074 31.0227 32.4963 30.9668 32.4746 30.9146C32.453 30.8624 32.4213 30.815 32.3813 30.7751L30.5575 28.9616V25.8665C30.5576 25.81 30.5466 25.7539 30.5251 25.7016C30.5035 25.6493 30.4718 25.6018 30.4319 25.5617C30.3919 25.5217 30.3444 25.49 30.2922 25.4684C30.24 25.4469 30.184 25.4358 30.1274 25.436ZM27.2274 23.4123C27.1685 23.3149 27.0736 23.2448 26.9633 23.2172C26.8531 23.1895 26.7364 23.2066 26.6386 23.2646C25.6647 23.8511 24.8509 24.6697 24.2698 25.6475C24.2316 25.713 24.2113 25.7873 24.2109 25.8631C24.2105 25.9388 24.23 26.0134 24.2675 26.0792C24.305 26.145 24.3592 26.1998 24.4245 26.2381C24.4899 26.2763 24.5641 26.2967 24.6398 26.2971C24.7848 26.2971 24.9273 26.222 25.0085 26.0868C25.517 25.2316 26.229 24.5157 27.0811 24.003C27.1787 23.944 27.2489 23.8488 27.2766 23.7381C27.3042 23.6274 27.287 23.5103 27.2286 23.4123H27.2274ZM33.6526 23.2558C33.5551 23.2045 33.4418 23.1925 33.3358 23.2223C33.2298 23.2521 33.1393 23.3215 33.0829 23.4162C33.0265 23.5108 33.0085 23.6235 33.0326 23.7311C33.0567 23.8386 33.1211 23.9328 33.2125 23.9942C34.0626 24.5024 34.7813 25.2233 35.2876 26.0743C35.3154 26.125 35.3532 26.1696 35.3986 26.2054C35.4441 26.2411 35.4962 26.2674 35.552 26.2825C35.6078 26.2976 35.6661 26.3013 35.7233 26.2934C35.7806 26.2855 35.8356 26.2661 35.8852 26.2364C35.9348 26.2067 35.9779 26.1673 36.012 26.1205C36.046 26.0737 36.0703 26.0206 36.0833 25.9642C36.0964 25.9078 36.098 25.8494 36.088 25.7924C36.078 25.7354 36.0566 25.681 36.0251 25.6325C35.4424 24.656 34.6273 23.839 33.6526 23.2546V23.2558Z" fill="#5A54F9"/>
</svg>
