<svg width="36" height="36" viewBox="0 0 36 36" fill="none" xmlns="http://www.w3.org/2000/svg">
<path d="M5 19.9325H5.72735C5.99674 21.5394 6.61634 22.8277 7.58615 23.7974C8.55595 24.7671 9.68066 25.2519 10.9603 25.2519C11.9435 25.2519 12.7517 24.9541 13.3848 24.3584C14.0178 23.7489 14.3344 23.0147 14.3344 22.1558C14.3344 21.4771 14.1054 20.9091 13.6474 20.4519C13.1895 19.981 12.5429 19.6485 11.7078 19.4545C10.0241 19.0667 8.83208 18.7411 8.13166 18.4779C7.09451 18.09 6.36716 17.6329 5.9496 17.1065C5.4647 16.497 5.22225 15.6589 5.22225 14.5922C5.22225 13.2762 5.6398 12.1818 6.47491 11.3091C7.31002 10.4364 8.36738 10 9.64698 10C10.3474 10 10.9737 10.1247 11.526 10.374C12.0917 10.6234 12.6574 10.9974 13.2231 11.4961L14.1525 10.1455H14.8799L14.9405 15.7766H14.2738C13.4791 12.4658 11.9301 10.8104 9.62678 10.8104C8.72432 10.8104 7.9835 11.0874 7.40431 11.6416C6.83859 12.1818 6.55573 12.8398 6.55573 13.6156C6.55573 14.4052 6.81839 15.0286 7.3437 15.4857C7.74778 15.8459 8.7782 16.2199 10.435 16.6078C12.1052 16.9957 13.2905 17.4113 13.9909 17.8545C15.1762 18.6026 15.7689 19.7108 15.7689 21.1792C15.7689 22.5645 15.3177 23.7143 14.4152 24.6286C13.5127 25.5429 12.3342 26 10.8794 26C9.35739 26 8.01717 25.4874 6.85879 24.4623L5.72735 25.8961H5V19.9325Z" fill="black"/>
<path d="M16.3499 18.6774V18.0956C17.7615 17.8518 18.4673 16.738 18.4673 14.7543H19.0169V17.9127H21.4737V18.6774H19.0169V23.681C19.0169 24.1022 19.1139 24.4346 19.3078 24.6784C19.5018 24.9223 19.7712 25.0442 20.116 25.0442C20.5362 25.0442 20.8649 24.8502 21.102 24.4623C21.3498 24.0745 21.4737 23.5093 21.4737 22.7668H22.0233C22.0233 23.7642 21.8078 24.5288 21.3767 25.0608C20.9565 25.5816 20.3854 25.8421 19.6634 25.8421C19.0492 25.8421 18.5643 25.6703 18.2087 25.3268C17.8531 24.9832 17.6753 24.5067 17.6753 23.8971V18.6774H16.3499Z" fill="black"/>
<path d="M28.4139 25.7091L28.2199 24.1299C27.5841 25.2713 26.7652 25.8421 25.7631 25.8421C24.8795 25.8421 24.1413 25.4653 23.5487 24.7117C22.956 23.947 22.6597 22.9662 22.6597 21.7694C22.6597 20.5835 22.9776 19.6139 23.6133 18.8603C24.2491 18.0956 25.0141 17.7132 25.9085 17.7132C26.8891 17.7132 27.6596 18.2064 28.2199 19.1927V14.8042C28.2199 14.2944 27.8535 14.0395 27.1208 14.0395H26.6035V13.4244L29.5615 13.2582V23.9138C29.5615 24.6895 29.8632 25.0774 30.4666 25.0774H31V25.7091H28.4139ZM26.1186 18.3616C24.8471 18.3616 24.2114 19.4199 24.2114 21.5366C24.2114 23.8971 24.8417 25.0774 26.1025 25.0774C26.7275 25.0774 27.2339 24.7671 27.6218 24.1465C28.0205 23.5259 28.2199 22.6615 28.2199 21.5532C28.2199 20.6002 28.0205 19.83 27.6218 19.2426C27.2231 18.6552 26.7221 18.3616 26.1186 18.3616Z" fill="black"/>
</svg>
